<?xml version="1.0" encoding="UTF-8" standalone="no"?>
<!-- Created with Inkscape (http://www.inkscape.org/) -->

<svg
   xmlns:dc="http://purl.org/dc/elements/1.1/"
   xmlns:cc="http://creativecommons.org/ns#"
   xmlns:rdf="http://www.w3.org/1999/02/22-rdf-syntax-ns#"
   xmlns:svg="http://www.w3.org/2000/svg"
   xmlns="http://www.w3.org/2000/svg"
   xmlns:sodipodi="http://sodipodi.sourceforge.net/DTD/sodipodi-0.dtd"
   xmlns:inkscape="http://www.inkscape.org/namespaces/inkscape"
   width="20"
   height="20"
   viewBox="0 0 5.2916665 5.2916668"
   version="1.1"
   id="svg1004"
   inkscape:version="0.92.3 (2405546, 2018-03-11)"
   sodipodi:docname="EditSymbol.svg"
   inkscape:export-filename="/home/sven/dev/c/BSEQuencer/EditSymbol.png"
   inkscape:export-xdpi="96"
   inkscape:export-ydpi="96">
  <defs
     id="defs998" />
  <sodipodi:namedview
     id="base"
     pagecolor="#ffffff"
     bordercolor="#666666"
     borderopacity="1.0"
     inkscape:pageopacity="0.0"
     inkscape:pageshadow="2"
     inkscape:zoom="7.9195959"
     inkscape:cx="5.7142858"
     inkscape:cy="17.142857"
     inkscape:document-units="px"
     inkscape:current-layer="layer1"
     showgrid="false"
     units="px"
     inkscape:window-width="1853"
     inkscape:window-height="1025"
     inkscape:window-x="67"
     inkscape:window-y="27"
     inkscape:window-maximized="1" />
  <metadata
     id="metadata1001">
    <rdf:RDF>
      <cc:Work
         rdf:about="">
        <dc:format>image/svg+xml</dc:format>
        <dc:type
           rdf:resource="http://purl.org/dc/dcmitype/StillImage" />
        <dc:title></dc:title>
      </cc:Work>
    </rdf:RDF>
  </metadata>
  <g
     inkscape:label="Ebene 1"
     inkscape:groupmode="layer"
     id="layer1"
     transform="translate(0,-291.70832)">
    <path
       style="display:inline;fill:#f9f9f9;fill-opacity:1;stroke:#ffffff;stroke-width:0;stroke-linejoin:miter;stroke-miterlimit:4;stroke-dasharray:none;stroke-dashoffset:0;stroke-opacity:0"
       d="m 4.8486254,294.2024 a 1.1506799,1.1506799 0 0 0 0.4853075,-1.04218 l -0.6283879,0.44 -0.6441956,-0.25128 -0.015808,-0.6913 0.6280198,-0.43974 a 1.1506799,1.1506799 0 0 0 -1.144942,0.0993 1.1506799,1.1506799 0 0 0 -0.4849392,1.04191 l -2.7982899,1.95939 a 0.57534001,0.57534001 0 0 0 -0.14128946,0.80129 0.57534001,0.57534001 0 0 0 0.8012924,0.14129 l 2.79792156,-1.95913 a 1.1506799,1.1506799 0 0 0 1.1453103,-0.0996 z m -4.16323298,1.74453 a 0.19177999,0.19177999 0 0 1 -0.2670975,-0.0471 0.19177999,0.19177999 0 0 1 0.0470965,-0.2671 0.19177999,0.19177999 0 0 1 0.26709748,0.0471 0.19177999,0.19177999 0 0 1 -0.0470965,0.2671 z"
       id="path1638"
       inkscape:connector-curvature="0" />
  </g>
</svg>
